# xmcd
#
# Track frame offsets:
#	150
#	30452
#	91249
#	123771
#	165697
#
# Disc length: 3018 seconds
#
# Revision: 0
# Processed by: cddbd v1.5.2PL0 Copyright (c) Steve Scherf et al.
# Submitted via: audiograbber 1.83.01
#
DISCID=2f0bc805
DTITLE=Grateful Dead - 92-06-06 Rich Stadium, Orchard Park NY
DYEAR=1900
DGENRE=
TTITLE0=Iko Iko
TTITLE1=Estimated Prophet
TTITLE2=The Same Thing
TTITLE3=He's Gone
TTITLE4=Drums
EXTD=
EXTT0=
EXTT1=
EXTT2=
EXTT3=
EXTT4=
PLAYORDER=
